<svg version="1.1" xmlns="http://www.w3.org/2000/svg" xmlns:xlink="http://www.w3.org/1999/xlink" x="0px" y="0px"
	 viewBox="0 0 512 512" style="enable-background:new 0 0 512 512;" xml:space="preserve">
<style type="text/css">
	.st0{fill:#FFFFFF;}
	.st1{fill:#F1592B;}
	.st2{fill:none;stroke:#455B64;stroke-width:8;stroke-linecap:round;stroke-linejoin:round;stroke-miterlimit:10;}
</style>
<g id="bg_1_">
	<rect class="st0" width="512" height="512"/>
</g>
<g id="text_2_">
	<path class="st1" d="M398.8,73.2l-62.8,62.8c0,0-0.1,0-0.1,0V80.3c0-9-10.8-13.4-17.2-7.1L173.1,218.9c-6.3,6.3-1.8,17.1,7.1,17.1
		h135.9c11,0,19.9,8.9,19.9,19.9c0,0,0,0-0.1,0.1L156,256c-11,0-20-9-20-20v0c0-5.2,2.1-10.2,5.7-13.8L290.6,73.1
		c6.3-6.3,1.8-17.1-7.1-17.1h-59.3c-5.3,0-10.4,2.1-14.1,5.9L101.9,170.1c-3.8,3.8-5.9,8.8-5.9,14.1V366c0,5.5,4.5,10,10,10l20,0
		c5.5,0,10-4.5,10-10v-10l-0.2-29.8c-0.1-5.6,4.4-10.3,10-10.3h20c5.4,0,9.9,4.3,10,9.8l0.2,30.2L176,366c0,5.5,4.5,9.9,10,9.9l20,0
		c5.5,0,10-4.5,10-10v-40c0-5.5,4.5-10,10-10h60c5.5,0,10,4.5,10,10v40c0,5.5,4.5,10,10,10h20.1c5.4,0,9.9-4.4,9.9-9.9l0-10.1v-30
		c0-5.5,4.5-10,10-10h20c5.5,0,10,4.5,10,10v30v10c0,5.5,4.5,10,10,10h20c5.5,0,10-4.5,10-10V80.3C416,71.3,405.2,66.8,398.8,73.2z
		 M296,189c-7.2,0-13-5.8-13-13s5.8-13,13-13s13,5.8,13,13S303.2,189,296,189z M256,68c4.4,0,8,3.6,8,8c0,4.4-3.6,8-8,8s-8-3.6-8-8
		C248,71.6,251.6,68,256,68z M236,88c4.4,0,8,3.6,8,8c0,4.4-3.6,8-8,8s-8-3.6-8-8C228,91.6,231.6,88,236,88z M216,108
		c4.4,0,8,3.6,8,8c0,4.4-3.6,8-8,8s-8-3.6-8-8C208,111.6,211.6,108,216,108z M196,128c4.4,0,8,3.6,8,8c0,4.4-3.6,8-8,8s-8-3.6-8-8
		C188,131.6,191.6,128,196,128z M175.5,148c4.4,0,8,3.6,8,8c0,4.4-3.6,8-8,8s-8-3.6-8-8C167.5,151.6,171.1,148,175.5,148z M156,168
		c4.4,0,8,3.6,8,8c0,4.4-3.6,8-8,8s-8-3.6-8-8C148,171.6,151.6,168,156,168z M136,188c4.4,0,8,3.6,8,8c0,4.4-3.6,8-8,8s-8-3.6-8-8
		C128,191.6,131.6,188,136,188z M376,189c-7.2,0-13-5.8-13-13s5.8-13,13-13s13,5.8,13,13S383.2,189,376,189z"/>
	<rect x="102.9" y="416" class="st2" width="32" height="48"/>
	<rect x="331.4" y="416" class="st2" width="32" height="48"/>
	<rect x="240" y="416" class="st2" width="32" height="48"/>
	<line class="st2" x1="377.1" y1="464" x2="409.1" y2="416"/>
	<line class="st2" x1="377.1" y1="416" x2="409.1" y2="464"/>
	<path class="st2" d="M226.3,464"/>
	<line class="st2" x1="194.3" y1="416" x2="226.3" y2="416"/>
	<line class="st2" x1="210.3" y1="416" x2="210.3" y2="464"/>
	<polyline class="st2" points="180.6,464 148.6,464 148.6,416 180.6,416 	"/>
	<polyline class="st2" points="285.7,464 285.7,416 317.7,416 	"/>
	<line class="st2" x1="317.7" y1="440" x2="285.7" y2="440"/>
</g>
</svg>